HIERARCHY
ROOT Hips
{
	OFFSET 0.000000 0.000000 0.000000 
	CHANNELS 6 Xposition Yposition Zposition Zrotation Yrotation Xrotation
	JOINT LeftUpLeg
	{
		OFFSET 1.363060 -1.794630 0.839290 
		CHANNELS 3 Zrotation Yrotation Xrotation
		JOINT LeftLeg
		{
			OFFSET 2.448110 -6.726130 0.000000 
			CHANNELS 3 Zrotation Yrotation Xrotation
			JOINT LeftFoot
			{
				OFFSET 2.562200 -7.039590 0.000000 
				CHANNELS 3 Zrotation Yrotation Xrotation
				JOINT LeftToeBase
				{
					OFFSET 0.157640 -0.433110 2.322550 
					CHANNELS 3 Zrotation Yrotation Xrotation
					End Site
					{
						OFFSET 0.000000 0.000000 0.000000 
					}
				}
			}
		}
	}
	JOINT RightUpLeg
	{
		OFFSET -1.305520 -1.794630 0.839290 
		CHANNELS 3 Zrotation Yrotation Xrotation
		JOINT RightLeg
		{
			OFFSET -2.542530 -6.985550 0.000000 
			CHANNELS 3 Zrotation Yrotation Xrotation
			JOINT RightFoot
			{
				OFFSET -2.568260 -7.056230 0.000000 
				CHANNELS 3 Zrotation Yrotation Xrotation
				JOINT RightToeBase
				{
					OFFSET -0.164730 -0.452590 2.363150 
					CHANNELS 3 Zrotation Yrotation Xrotation
					End Site
					{
						OFFSET 0.000000 0.000000 0.000000 
					}
				}
			}
		}
	}
	JOINT Spine
	{
		OFFSET 0.028270 2.035590 -0.193380 
		CHANNELS 3 Zrotation Yrotation Xrotation
		JOINT Spine1
		{
			OFFSET 0.056720 2.048850 -0.042750 
			CHANNELS 3 Zrotation Yrotation Xrotation
			JOINT Neck1
			{
				OFFSET -0.054170 1.746240 0.172020 
				CHANNELS 3 Zrotation Yrotation Xrotation
				JOINT Head
				{
					OFFSET 0.104070 1.761360 -0.123970 
					CHANNELS 3 Zrotation Yrotation Xrotation
					End Site
					{
						OFFSET 0.000000 0.000000 0.000000 
					}
				}
			}
			JOINT LeftArm
			{
				OFFSET 3.362410 1.200890 -0.311210 
				CHANNELS 3 Zrotation Yrotation Xrotation
				JOINT LeftForeArm
				{
					OFFSET 4.983000 -0.000000 -0.000000 
					CHANNELS 3 Zrotation Yrotation Xrotation
					JOINT LeftHand
					{
						OFFSET 3.483560 -0.000000 -0.000000 
						CHANNELS 3 Zrotation Yrotation Xrotation
						JOINT LeftHandIndex1
						{
							OFFSET 0.715260 -0.000000 -0.000000 
							CHANNELS 3 Zrotation Yrotation Xrotation
							End Site
							{
								OFFSET 0.000000 0.000000 0.000000 
							}
						}
					}
				}
			}
			JOINT RightArm
			{
				OFFSET -3.136600 1.374050 -0.404650 
				CHANNELS 3 Zrotation Yrotation Xrotation
				JOINT RightForeArm
				{
					OFFSET -5.241900 -0.000000 -0.000000 
					CHANNELS 3 Zrotation Yrotation Xrotation
					JOINT RightHand
					{
						OFFSET -3.444170 -0.000000 -0.000000 
						CHANNELS 3 Zrotation Yrotation Xrotation
						JOINT RightHandIndex1
						{
							OFFSET -0.622530 -0.000000 -0.000000 
							CHANNELS 3 Zrotation Yrotation Xrotation
							End Site
							{
								OFFSET 0.000000 0.000000 0.000000 
							}
						}
					}
				}
			}
		}
	}
}
MOTION
Frames: 6
Frame Time: 0.041667
7.422500 9.065800 10.026400 3.512900 1.888600 89.639500 -18.303500 -19.492300 -40.427900 5.919400 14.349800 44.657500 -1.247100 22.037400 -19.821100 0.580800 4.880100 13.566900 7.348900 33.707700 -43.081700 -5.239100 -13.648200 41.845900 -3.031700 2.080400 33.734300 -1.329300 -7.301300 20.611200 2.853700 3.084600 -0.432000 5.745400 1.546800 0.568900 18.838800 -20.367800 28.168100 7.039900 -8.799300 14.124900 -7.649100 -49.905300 21.453500 117.258600 -56.997300 -83.368700 0.000000 0.000000 -64.464100 -7.125000 0.000000 0.000000 -0.822500 28.598800 13.734300 -113.833000 57.741000 -80.483500 0.000000 0.000000 -45.764200 7.125000 0.000000 0.000000 
7.418900 9.061500 10.013800 3.577200 1.889300 89.414000 -18.459200 -19.337000 -40.362100 6.000200 14.428600 44.982600 -1.228600 21.896600 -19.712500 0.594500 4.936100 13.726400 7.232400 33.705700 -43.305100 -5.409400 -13.830500 42.562600 -3.151900 2.006900 34.357500 -1.447200 -7.604800 21.519900 2.811000 3.116200 -0.377100 5.685600 1.560600 0.576300 19.048800 -20.478900 28.115000 7.084000 -8.814700 14.233800 -7.646100 -50.403100 22.426800 118.935800 -56.586900 -84.772000 0.000000 0.000000 -64.458400 -7.125000 0.000000 0.000000 -0.320800 28.567800 15.012300 -115.902400 57.306500 -82.229300 0.000000 0.000000 -45.774900 7.125000 0.000000 0.000000 
7.414900 9.057500 10.003500 3.642700 1.891400 89.182600 -18.599100 -19.192900 -40.323600 6.092100 14.517000 45.350100 -1.228000 21.779400 -19.414700 0.595600 4.940800 13.739800 7.148400 33.658500 -43.496400 -5.572900 -14.001300 43.242500 -3.282800 1.895100 35.011800 -1.554200 -7.868300 22.314700 2.759100 3.152300 -0.321700 5.611700 1.576900 0.575300 19.231100 -20.600700 28.033700 7.105600 -8.834000 14.322700 -7.676700 -50.905300 23.349400 120.574400 -56.154900 -86.136400 0.000000 0.000000 -64.474200 -7.125000 0.000000 0.000000 0.142600 28.551300 16.233200 -117.821200 56.863100 -83.840100 0.000000 0.000000 -45.748600 7.125000 0.000000 0.000000 
7.410700 9.053800 9.995200 3.702100 1.892000 88.940100 -18.727100 -19.057600 -40.306800 6.194200 14.613900 45.756100 -1.241700 21.692400 -18.985700 0.574200 4.852700 13.488900 7.092400 33.581400 -43.651900 -5.729600 -14.161100 43.886700 -3.408500 1.806700 35.636000 -1.625400 -8.037800 22.828900 2.705000 3.185900 -0.271100 5.534300 1.592700 0.555000 19.277800 -20.711600 27.977200 7.059300 -8.849300 14.392200 -7.757900 -51.372600 24.242800 122.197700 -55.695300 -87.481000 0.000000 0.000000 -64.477200 -7.125000 0.000000 0.000000 0.551700 28.583900 17.403400 -119.612000 56.412400 -85.335900 0.000000 0.000000 -45.770100 7.125000 0.000000 0.000000 
7.406100 9.050300 9.988800 3.747200 1.885300 88.678500 -18.854200 -18.919000 -40.305400 6.306200 14.718600 46.198400 -1.267200 21.648700 -18.479100 0.531400 4.671000 12.972600 7.061300 33.489200 -43.764700 -5.880800 -14.311800 44.501300 -3.517200 1.764900 36.178700 -1.664900 -8.130100 23.109900 2.653500 3.217600 -0.225100 5.464200 1.608400 0.508500 19.121600 -20.803200 27.978600 6.915200 -8.857800 14.444000 -7.913400 -51.795200 25.139000 123.787000 -55.213300 -88.790100 0.000000 0.000000 -64.365400 -7.125000 0.000000 0.000000 0.894600 28.678500 18.531400 -121.288000 55.956800 -86.728400 0.000000 0.000000 -45.871600 7.125000 0.000000 0.000000 
7.401200 9.047000 9.983800 3.775200 1.868000 88.396600 -18.983700 -18.778300 -40.318000 6.428800 14.831400 46.679400 -1.297700 21.645500 -17.983500 0.480000 4.442800 12.325800 7.045800 33.403600 -43.836600 -6.028200 -14.455600 45.094800 -3.599800 1.775000 36.600500 -1.683000 -8.172100 23.237900 2.608800 3.244700 -0.187400 5.407100 1.622900 0.430700 18.725100 -20.856000 28.049700 6.663500 -8.854400 14.471100 -8.104600 -52.134900 26.024100 125.372000 -54.699700 -90.087800 0.000000 0.000000 -64.102500 -7.125000 0.000000 0.000000 1.176400 28.840400 19.637700 -122.869500 55.495500 -88.035400 0.000000 0.000000 -46.061000 7.125000 0.000000 0.000000 
